<svg xmlns="http://www.w3.org/2000/svg" xmlns:xlink="http://www.w3.org/1999/xlink" width="500" zoomAndPan="magnify" viewBox="0 0 375 374.999991" height="500" preserveAspectRatio="xMidYMid meet" version="1.0"><defs><clipPath id="3b32a40e3e"><path d="M 78 145 L 311 145 L 311 345.6875 L 78 345.6875 Z M 78 145 " clip-rule="nonzero"/></clipPath></defs><path fill="#00c0ff" d="M 76.359375 59.042969 C 119.597656 46.265625 186.421875 111.832031 186.421875 111.832031 C 186.421875 111.832031 237.214844 51.988281 296.484375 59.042969 C 368.269531 67.585938 352.132812 164.148438 345.941406 203.371094 C 374.84375 157.261719 369.035156 99.554688 363.894531 83.851562 C 356.914062 62.496094 339.328125 44.644531 317.816406 37.984375 C 243.835938 15.078125 186.421875 72.648438 186.421875 72.648438 C 186.421875 72.648438 116.320312 8.921875 55.355469 34.148438 C 5.410156 54.8125 -22.402344 128.339844 52.699219 188.109375 C 101.753906 227.152344 146.015625 247.648438 181.757812 310.40625 C 175.4375 261.425781 115.890625 215.5 74.882812 182.863281 C 12.242188 133.003906 33.117188 71.816406 76.359375 59.042969 " fill-opacity="1" fill-rule="nonzero"/><g clip-path="url(#3b32a40e3e)"><path fill="#043570" d="M 239.609375 264.714844 C 279.25 221.09375 300.75 177.09375 305.199219 145.742188 C 324.460938 197.1875 293.75 285.699219 207.671875 345.839844 C 218.222656 291.941406 173.402344 209.664062 78.617188 164.46875 C 204.71875 193.003906 239.609375 264.714844 239.609375 264.714844 " fill-opacity="1" fill-rule="nonzero"/></g><path fill="#043570" d="M 264.050781 186.511719 C 264.050781 201.332031 252.039062 213.347656 237.21875 213.347656 C 222.394531 213.347656 210.378906 201.332031 210.378906 186.511719 C 210.378906 171.6875 222.394531 159.675781 237.21875 159.675781 C 252.039062 159.675781 264.050781 171.6875 264.050781 186.511719 " fill-opacity="1" fill-rule="nonzero"/></svg>